<?xml version="1.0" standalone="no"?>
<!DOCTYPE svg PUBLIC "-//W3C//DTD SVG 20010904//EN"
 "http://www.w3.org/TR/2001/REC-SVG-20010904/DTD/svg10.dtd">
<svg version="1.0" xmlns="http://www.w3.org/2000/svg"
 width="300.000000pt" height="300.000000pt" viewBox="0 0 300.000000 300.000000"
 preserveAspectRatio="xMidYMid meet">

<g transform="translate(0.000000,300.000000) scale(0.100000,-0.100000)"
fill="#000000" stroke="none">
<path d="M906 2450 c-85 -33 -87 -27 47 -173 l78 -86 -22 -53 c-29 -69 -28
-68 -91 -83 l-53 -13 -107 106 -107 106 -33 -70 c-28 -59 -33 -80 -33 -144 1
-101 28 -163 106 -235 89 -82 207 -112 328 -84 l45 10 117 -117 c117 -116 118
-118 139 -99 11 10 20 23 20 29 0 6 -58 69 -129 140 l-129 129 -48 -17 c-26
-9 -76 -16 -110 -16 -118 0 -236 86 -265 193 -11 40 -7 135 6 157 3 5 43 -29
89 -77 l82 -86 98 24 98 24 39 95 c37 91 38 95 21 115 -10 11 -46 51 -80 88
-34 37 -62 72 -62 77 0 15 126 12 163 -3 126 -53 186 -202 142 -353 l-17 -59
132 -128 132 -129 25 24 25 23 -117 113 -117 113 12 60 c47 222 -101 420 -313
419 -36 -1 -82 -9 -111 -20z"/>
<path d="M2067 2257 c-127 -122 -128 -122 -108 -142 20 -20 19 -21 -386 -438
l-406 -418 -71 69 -71 70 -240 -255 c-132 -139 -245 -266 -252 -281 -16 -37
-16 -86 1 -127 20 -48 91 -122 160 -167 68 -44 128 -51 183 -21 18 10 137 130
264 267 l231 248 -67 68 -66 67 227 234 c567 582 586 601 604 584 9 -8 19 -15
22 -15 4 0 59 57 123 127 l116 127 -63 63 c-34 35 -65 63 -68 63 -3 -1 -63
-56 -133 -123z m124 -56 c-27 -31 -62 -68 -78 -84 l-29 -27 -22 23 -23 24 82
77 c77 75 81 77 100 60 18 -16 17 -18 -30 -73z m-1037 -1020 l119 -119 -38
-46 c-21 -26 -41 -45 -46 -44 -4 2 -62 54 -128 116 l-121 114 41 49 c22 27 44
49 48 49 3 0 60 -54 125 -119z m-135 -147 l121 -116 -39 -47 c-22 -25 -89 -97
-148 -159 -103 -107 -110 -112 -148 -112 -52 0 -110 39 -182 123 -38 43 -43
87 -15 128 21 32 274 299 283 299 4 0 61 -52 128 -116z"/>
<path d="M1702 1557 l-21 -23 158 -158 159 -159 52 13 c197 47 370 -76 358
-257 -2 -34 -7 -65 -10 -69 -4 -3 -45 34 -91 82 l-85 89 -100 -34 -101 -33
-21 -69 c-39 -131 -42 -119 44 -209 42 -45 74 -85 71 -90 -3 -6 -36 -10 -73
-10 -85 0 -135 23 -190 85 -71 81 -89 184 -52 296 12 34 20 62 18 63 -2 1 -72
69 -155 151 l-153 149 -26 -25 -26 -24 142 -135 141 -135 -17 -65 c-40 -155
30 -319 167 -395 49 -27 62 -30 149 -30 79 0 103 4 143 24 26 13 47 29 47 35
0 7 -21 32 -46 56 -25 25 -68 70 -95 101 l-49 57 18 57 c17 57 17 57 79 80
l61 22 104 -104 c56 -56 105 -103 109 -103 3 0 19 28 35 63 61 131 31 274 -77
371 -80 72 -204 102 -314 76 l-40 -9 -145 145 -146 145 -22 -24z"/>
</g>
</svg>
